# xmcd
#
# Track frame offsets: 
#        183
#        18023
#        36520
#        52990
#        67143
#        84325
#        96360
#        109608
#        127325
#        143168
#        159543
#        175130
#        188073
#        198705
#
# Disc length: 2776 seconds
#
# Revision: 0
# Processed by: cddbd v1.5.2PL0 Copyright (c) Steve Scherf et al.
# Submitted via: ExactAudioCopyFreeDBPlugin 1.0
#
DISCID=c50ad60e
DTITLE=Ambiance Créole - Super
DYEAR=1900
DGENRE=Dance
TTITLE0=Simone - A.I.E. - Simone
TTITLE1=D. Martial - Célimène - D Martial
TTITLE2=Vangarde-Kugler - C'est bon pour le moral - Vangarde-Kugler
TTITLE3=D.Vangarde - Dounier Rousseau
TTITLE4=Carlos - Descendez sur la plage - Carlos
TTITLE5=Yannick Lemaire - En face - Yannick Lemaire
TTITLE6=Yannick Lemaire - Nuit et jour - Yannick Lemaire
TTITLE7=Vangade-Kugler - Le bal Masqué - Vangarde-Kugler
TTITLE8=Vangade-Kugler - Bons baisers de fort de France - Vangarde-Kug
TTITLE8=ler
TTITLE9=Vangade-Kugler - Ca fait rire les oiseaux - Vangade-Kugler
TTITLE10=Moustache-Nelle Eyoun - Ami oh - Moustache-Nelle eyoun
TTITLE11=Yannick Lemaire - Tout ce que je sais - Yannick Lemaire
TTITLE12=Yannick Lemaire - De toute ma vie - Yannick Lemaire
TTITLE13=Yannick Lemaire - C'est agaçant - Yannick Lemaire
EXTD=
EXTT0=
EXTT1=
EXTT2=
EXTT3=
EXTT4=
EXTT5=
EXTT6=
EXTT7=
EXTT8=
EXTT9=
EXTT10=
EXTT11=
EXTT12=
EXTT13=
PLAYORDER=
